<svg id="Facebook" xmlns="http://www.w3.org/2000/svg" viewBox="0 0 640.26 640.26"><defs><style>.cls-1{fill:#2a5caa;}.cls-2{fill:#fff;}</style></defs><title>facebook</title><rect class="cls-1" width="640.26" height="640.26" rx="136.8" ry="136.8"/><path class="cls-2" d="M376.72,678.62c0-1.33.14-2.66.14-4q0-120.44,0-240.89c0-1,0-1.91,0-3.07H296.61c-3.56,0-3.57,0-3.57-3.43,0-30.06,0-60.11-.06-90.17,0-2.74.82-3.43,3.48-3.42,25.61.09,51.22.06,76.83.06h3.59c0-1,0-2,0-2.9,0-25-.15-50,.21-75,.29-20.1,4.17-39.56,12.94-57.8q17.86-37.14,56-53a131.91,131.91,0,0,1,53-10.07c21,.32,41.93,1.25,62.9,2,3.9.14,7.78.8,11.68,1,2.17.11,2.9.92,2.89,3.09-.08,12.45,0,24.9,0,37.35,0,14.67-.06,29.34.05,44,0,2.56-.71,3.33-3.3,3.32-15.92-.11-31.84-.3-47.75.06a113.57,113.57,0,0,0-21.62,2.5c-13.62,3-21.68,12-24.4,25.53a89.81,89.81,0,0,0-1.76,16.63c-.21,20.36-.09,40.72-.08,61.09,0,.61.07,1.21.13,2.15h91.51c3.85,0,3.9,0,3.43,3.65-2.08,16-4.23,32-6.28,48q-2.58,20.07-5,40.15c-.61,5.11-.49,5.12-5.62,5.12H477.63v3.86q0,119.11,0,238.22c0,2,0,3.91-.06,5.86Z" transform="translate(-39.87 -39.87)"/></svg>