<?xml version="1.0" encoding="utf-8"?>
<!-- Generator: Adobe Illustrator 14.0.0, SVG Export Plug-In . SVG Version: 6.00 Build 43363)  -->
<!DOCTYPE svg PUBLIC "-//W3C//DTD SVG 1.1//EN" "http://www.w3.org/Graphics/SVG/1.1/DTD/svg11.dtd">
<svg version="1.1" id="Layer_1" xmlns="http://www.w3.org/2000/svg" xmlns:xlink="http://www.w3.org/1999/xlink" x="0px" y="0px"
	 width="118.222px" height="23.29px" viewBox="0 0 118.222 23.29" enable-background="new 0 0 118.222 23.29" xml:space="preserve">
<g>
	<g>
		<path fill="#FFFFFF" d="M38.579,3.724c0,1.1-0.9,2-2,2h-34c-1.1,0-2-0.9-2-2v-1c0-1.1,0.9-2,2-2h34c1.1,0,2,0.9,2,2V3.724z"/>
	</g>
	<g>
		<path fill="#FFFFFF" d="M38.579,12.145c0,1.1-0.9,2-2,2h-34c-1.1,0-2-0.9-2-2v-1c0-1.1,0.9-2,2-2h34c1.1,0,2,0.9,2,2V12.145z"/>
	</g>
	<g>
		<path fill="#FFFFFF" d="M38.579,20.566c0,1.1-0.9,2-2,2h-34c-1.1,0-2-0.9-2-2v-1c0-1.1,0.9-2,2-2h34c1.1,0,2,0.9,2,2V20.566z"/>
	</g>
</g>
<g>
	<path fill="#FFFFFF" d="M45.497,20.673V2.303h5.551l3.334,12.532l3.295-12.532h5.564v18.371h-3.446V6.212l-3.646,14.461h-3.571
		L48.943,6.212v14.461H45.497z"/>
	<path fill="#FFFFFF" d="M66.925,20.673V2.303h13.621V5.41h-9.912v4.073h9.223v3.095h-9.223v5h10.264v3.095H66.925z"/>
	<path fill="#FFFFFF" d="M84.08,20.673V2.303h3.608l7.52,12.268V2.303h3.445v18.371h-3.722l-7.405-11.98v11.98H84.08z"/>
	<path fill="#FFFFFF" d="M102.551,2.303h3.709v9.949c0,1.58,0.046,2.603,0.138,3.071c0.159,0.752,0.537,1.355,1.135,1.811
		c0.597,0.456,1.413,0.684,2.449,0.684c1.053,0,1.847-0.216,2.381-0.646c0.535-0.431,0.856-0.959,0.965-1.585
		c0.108-0.627,0.163-1.667,0.163-3.122V2.303h3.709v9.649c0,2.206-0.1,3.763-0.301,4.674c-0.2,0.91-0.57,1.679-1.109,2.306
		c-0.538,0.626-1.259,1.125-2.161,1.497s-2.08,0.558-3.534,0.558c-1.754,0-3.084-0.202-3.99-0.607
		c-0.907-0.405-1.623-0.932-2.149-1.579s-0.873-1.326-1.04-2.036c-0.242-1.053-0.363-2.606-0.363-4.663V2.303z"/>
</g>
</svg>
