<svg id="Twitter" xmlns="http://www.w3.org/2000/svg" viewBox="0 0 640.26 640.26"><defs><style>.cls-1{fill:#2caae1;}.cls-2{fill:#fff;}</style></defs><title>twitter</title><rect class="cls-1" width="640.26" height="640.26" rx="136.8" ry="136.8"/><path class="cls-2" d="M573.42,226.11a175.05,175.05,0,0,1-50.3,13.79,87.84,87.84,0,0,0,38.5-48.45A175.31,175.31,0,0,1,506,212.7a87.65,87.65,0,0,0-149.22,79.87,248.61,248.61,0,0,1-180.5-91.5A87.67,87.67,0,0,0,203.4,318a87.23,87.23,0,0,1-39.66-11c0,.37,0,.73,0,1.1A87.63,87.63,0,0,0,234,394a87.75,87.75,0,0,1-39.55,1.5,87.66,87.66,0,0,0,81.81,60.81,175.7,175.7,0,0,1-108.76,37.49,177.69,177.69,0,0,1-20.89-1.23,247.86,247.86,0,0,0,134.24,39.35C441.89,531.93,530,398.49,530,282.77q0-5.69-.25-11.33A177.93,177.93,0,0,0,573.42,226.11Z" transform="translate(-39.87 -39.87)"/></svg>